/* XPM */
static char *_fa5c6c98a384904c1333a29bc24f21505lnpxntaf7qR5pk[] = {
/* columns rows colors chars-per-pixel */
"100 68 147 2 ",
"   c #BF4626",
".  c #C25C46",
"X  c #D7664A",
"o  c #CD6F5D",
"O  c #D8755F",
"+  c #C56F61",
"@  c #C76F61",
"#  c #E47B60",
"$  c #E38670",
"%  c #89929F",
"&  c #AD8485",
"*  c #A19184",
"=  c #A4918A",
"-  c #BA908E",
";  c #ABA39D",
":  c #B7A798",
">  c #8C96A1",
",  c #9298A3",
"<  c #9CAAB2",
"1  c gray65",
"2  c #AFA3A6",
"3  c #A9A5A4",
"4  c #ABA4A5",
"5  c #AEA7AC",
"6  c gray66",
"7  c #A9A9AE",
"8  c #B5AAA3",
"9  c #B1A5A9",
"0  c #AFB2AB",
"q  c #BEB6AB",
"w  c #BDB8AF",
"e  c #A1AAB6",
"r  c #A4AAB7",
"t  c #B7AFB3",
"y  c #A7B3BF",
"u  c #AEBABA",
"i  c #B4B2B5",
"p  c #B6B6B6",
"a  c #BEB0B2",
"s  c #B3B2B8",
"d  c gray72",
"f  c #BFBAB8",
"g  c #BDBCB9",
"h  c #DF9788",
"j  c #E09888",
"k  c #E89B89",
"l  c #F49C85",
"z  c #DDA092",
"x  c #DAA295",
"c  c #F2A48F",
"v  c #E3A496",
"b  c #E4A596",
"n  c #C5ABA6",
"m  c #C6B5AB",
"M  c #CAB1AC",
"N  c #CDB4AF",
"B  c #DEB0A5",
"V  c #C3BBB4",
"C  c #CABBB8",
"Z  c #D1BCB7",
"A  c #E1B1A6",
"S  c #E7B6AA",
"D  c #E8B7AB",
"F  c #C9C0B0",
"G  c #C0C2BE",
"H  c #CBC1BA",
"J  c #D4C1B2",
"K  c #D4C5B0",
"L  c #9FB4C3",
"P  c #A8B6C3",
"I  c #AEBBCC",
"U  c #B2B8C0",
"Y  c #BFC6C2",
"T  c #BEC8CD",
"R  c #B3C1D3",
"E  c #BECBD3",
"W  c #BFCBD6",
"Q  c #B9C8D9",
"!  c #C4C3C4",
"~  c gray77",
"^  c gray78",
"/  c #CFC7C5",
"(  c #CACACA",
")  c #CBCBCB",
"_  c gray80",
"`  c #CECECE",
"'  c gray81",
"]  c #D2CAC8",
"[  c #D3CCCA",
"{  c #D5D0CE",
"}  c #DDD8CA",
"|  c #CCD4DB",
" . c #D5D2D2",
".. c #DDD8D0",
"X. c #D9DAD9",
"o. c #DBDBDC",
"O. c #DCDCDE",
"+. c #E5D3C5",
"@. c #EAE3D7",
"#. c #EDEADB",
"$. c #C8D9E7",
"%. c #D6DCE2",
"&. c #DFE2E4",
"*. c #D9E4E7",
"=. c #DBE1E8",
"-. c #DEE4EA",
";. c #D8E6ED",
":. c #DFEAF4",
">. c #E0E3E2",
",. c #E2E6E6",
"<. c #E5E4E5",
"1. c #E6E7E7",
"2. c #ECE7E0",
"3. c #EFE7E1",
"4. c #EAE6E7",
"5. c #E9E7E8",
"6. c #E4E9EB",
"7. c #ECEAE9",
"8. c #ECECEB",
"9. c gray93",
"0. c #EFEFEF",
"q. c #F2E8E0",
"w. c #F7EDE0",
"e. c #FCF3E6",
"r. c #F5F0EC",
"t. c #E3EAF1",
"y. c #E9EDF1",
"u. c #EDEFF0",
"i. c #EEF2F8",
"p. c gray94",
"a. c #F1F1F1",
"s. c #F4F4F4",
"d. c gray96",
"f. c gray97",
"g. c #F7F9F2",
"h. c #F8F8F3",
"j. c #FCF8F1",
"k. c #FEF9F5",
"l. c #F3F9FE",
"z. c #F3FCFC",
"x. c #F8F8F8",
"c. c #F9F9F9",
"v. c #FDFDFA",
"b. c #FCFCFB",
"n. c #FBFCFC",
"m. c gray99",
"M. c #FEFEFE",
/* pixels */
"6 ` `  . .` ` ` `  .` ' ' ' ' ' ` ` ` ` ` ` ` ` ` ` ` ` ` ` ` ` ` ` _ _ _ ` ( ` ` ( ( ( ` ( _ ( ( _ ( ( ( ( ( ( _ ( ` _ _ ` ` ` ` ` ` ` ` ` ` ` ` ` ` ` ` ` ` ` ` ` ` ` ` ` ` ` ` _ _ _ _ _ ` ( ` ( ( 1 ",
"` M.M.n.M.M.M.M.M.n.M.M.M.M.M.M.M.M.n.M.M.c.M.M.c.M.m.b.c.b.c.c.c.c.x.c.d.x.d.d.d.d.d.d.a.d.s.a.a.a.a.a.s.a.a.s.s.d.d.d.d.c.c.v.c.M.M.M.M.M.M.M.M.M.M.M.c.M.M.c.M.c.c.M.c.c.c.c.c.c.c.d.9.p.9.9.9.a.d.` ",
"` M.M.M.M.M.M.M.M.M.M.M.M.M.M.M.M.c.M.M.M.M.c.c.m.M.m.m.M.c.c.c.c.c.c.c.c.d.d.x.d.d.d.d.d.s.s.s.s.a.s.a.s.a.a.a.a.s.d.d.d.c.c.c.c.M.M.M.M.M.M.M.M.M.c.M.M.c.c.M.c.c.c.c.M.c.M.c.n.c.c. .B D D S A C d.` ",
"` M.M.M.M.M.M.M.M.M.M.M.M.M.M.M.M.M.M.q.:.M.M.i M.c.M.m.M.w.Q M.c.M.c.c.c.c.c.d.c.d.d.d.d.s.a.s.a.a.s.a.a.a.s.s.s.a.a.d.d.d.c.c.c.M.c.M.M.M.M.M.M.M.M.M.M.M.M.c.M.M.M.c.c.c.M.c.c.c.v.[ c k h j l Z d._ ",
"` M.M.q 0 { , 7 F u s g | : w *.m > 3 V P T ` * 4 >.; E i } % r n.c.c.c.x.d.x.d.d.d.d.d.s.s.s.a.s.a.s.a.a.s.a.a.a.a.s.a.d.d.d.c.c.c.c.M.M.M.M.M.M.M.M.M.M.M.M.M.c.M.M.c.M.c.c.M.c.M.c.] $ - O.9 # N d.` ",
"` M.M.G #.~ I H w ;.8 P M.V g.= X.L J ( $.&.<.t +.5 ~ R } g Q a l.M.c.m.x.x.d.c.d.c.d.d.s.s.d.s.s.a.a.a.a.a.s.a.s.s.a.s.d.a.d.d.c.c.M.c.c.M.M.M.M.M.M.M.M.c.c.M.M.c.M.M.c.M.M.c.c.M.c./ . & O.4   n x._ ",
"` M.M.8.h.@.e -.K W i.3.%.7.v.s e.< =.k.o.6.7.7.r.9. .,. .u.y.4.c.b.c.c.c.c.c.x.d.d.d.d.d.s.a.s.a.a.s.s.s.s.a.a.a.a.a.a.s.a.s.s.d.d.c.c.c.M.M.M.M.M.M.M.M.M.M.M.M.c.M.c.c.M.c.c.c.c.n.] O o o + X M x._ ",
"` M.M.M.M.j.6.M.2.l.M.M.M.M.3.t.k.-.M.M.M.M.M.M.M.M.M.c.M.n.m.n.c.b.c.c.c.c.c.d.x.d.d.d.s.s.d.a.s.a.a.a.a.a.a.s.a.s.s.a.a.a.s.a.d.d.c.c.c.c.c.M.M.M.M.M.M.M.M.M.M.M.c.M.M.c.M.M.M.c.n.[ x v b b z C x._ ",
"` M.n.f.f.f.f.f.f.f.f.f.f.f.f.c.d.c.d.c.d.c.d.d.c.d.d.d.c.d.d.d.d.d.d.d.s.s.s.a.s.a.a.a.a.a.a.a.p.u.a.9.a.9.p.9.p.9.9.a.a.9.a.a.9.a.a.a.d.d.d.d.c.d.c.d.c.d.c.d.c.d.d.d.d.d.d.d.d.d.d.d.6.4.1.1.1.9.x._ ",
"` M.d ` ` ` ` ` ` ` ` ` ` ` ` ` ` ` ` ` ` ` ` ` ` ` ` ` ` ` ` ` ' ` ` ` ` ` ` _ ` ` ` ` ` ` ` _ ` ` ` ` ` ` ` ` ` ` _ ` ` _ _ ` ` ` [ ' ` ' ` ` ` ` ` ` ` ` ` ` ` ` ` ` ` ` ` ` ` ` ` ` ` ` ` _ ` p m.` ",
"` M.( 0.0.a.0.a.u.a.0.a.0.a.0.0.0.a.0.a.0.a.0.a.0.a.0.a.0.a.a.0.a.a.0.0.p.p.p.p.p.p.p.p.p.p.p.p.p.p.p.p.9.a.p.p.p.p.p.p.p.p.p.p.a.a.a.a.u.a.a.a.9.a.a.a.a.9.a.a.a.a.a.a.a.a.a.a.a.a.9.a.a.9.a.a.p.~ x._ ",
"` M.) 0.a.0.a.0.0.0.a.0.a.0.a.0.a.0.a.0.a.0.a.0.a.0.a.0.a.0.0.a.r.u.a.u.p.p.p.p.p.p.p.p.p.p.p.p.p.p.p.p.p.a.p.p.a.p.p.p.p.p.p.p.a.9.a.9.u.u.a.9.a.a.9.a.a.a.9.a.a.9.a.a.a.9.a.9.9.a.9.a.a.a.9.a.p.( b._ ",
"` M.( a.0.a.0.a.0.a.0.a.0.a.0.a.0.a.0.a.0.a.0.a.0.a.0.a.a.0.a.0.u.u.a.p.p.p.p.p.p.p.p.p.p.p.p.p.p.p.p.p.p.p.p.p.p.p.p.p.p.p.p.p.a.a.9.a.a.a.a.a.9.a.9.a.a.a.a.a.9.a.a.a.9.a.a.a.a.a.a.9.a.a.a.9.p.( c.` ",
"` M.( a.a.0.a.0.a.0.a.0.a.0.a.0.a.0.a.0.a.0.a.0.a.0.a.0.0.a.0.a.a.a.a.u.p.p.p.p.p.p.p.p.p.p.p.p.p.p.p.p.p.p.p.p.p.p.p.p.p.p.p.p.a.9.a.a.a.9.a.9.a.a.a.a.9.a.9.a.a.a.a.9.a.a.a.9.9.a.a.a.9.a.a.a.p.~ m._ ",
"` M.( a.0.a.0.a.0.a.0.a.0.a.0.a.0.a.0.a.0.a.0.a.0.a.0.a.a.0.a.0.u.r.u.a.p.p.p.p.p.p.p.p.p.p.p.p.p.p.p.p.p.p.p.p.p.p.p.p.p.p.p.p.a.a.a.a.9.a.a.a.a.a.9.a.a.a.a.9.9.a.9.a.9.a.9.a.a.9.a.9.a.9.a.9.p.( c._ ",
"` M.( 0.a.0.a.0.a.0.a.0.a.0.a.0.a.0.a.0.a.0.a.0.a.0.a.0.0.a.0.a.a.a.u.a.p.p.p.p.p.p.p.p.p.p.p.p.p.p.p.p.p.p.p.p.p.p.p.p.p.p.p.p.a.9.a.9.a.a.a.9.a.9.a.a.9.a.a.a.a.a.a.a.a.a.a.a.a.a.a.a.a.a.a.a.p.~ c.` ",
"` M.( 0.a.0.a.0.a.0.a.0.a.0.a.0.a.0.a.0.a.0.a.0.a.0.a.0.a.0.a.0.p.p.p.p.p.p.p.p.p.p.p.p.p.p.p.p.p.p.p.p.p.p.p.p.p.p.p.p.p.p.p.p.a.a.a.a.a.9.a.a.a.a.a.9.a.a.a.a.a.9.a.9.a.9.a.9.a.9.a.9.a.9.a.9.p.~ M.` ",
"` M.( a.0.a.0.a.0.a.0.a.0.a.0.a.0.a.0.a.0.a.0.a.0.a.0.a.0.a.0.a.p.p.p.p.p.p.p.p.p.p.p.p.p.p.p.p.p.p.p.p.p.p.p.p.p.p.p.p.p.p.p.p.9.a.9.a.a.a.9.a.9.a.a.a.9.a.9.a.a.a.a.a.a.a.a.a.a.a.a.a.a.a.a.a.p.( c.` ",
"` M.( a.a.0.a.0.a.0.a.0.a.0.a.0.a.0.a.0.a.0.a.0.a.0.a.0.a.0.a.0.p.p.p.p.p.p.p.p.p.p.p.p.p.p.p.p.p.p.p.p.p.p.p.p.p.p.p.p.p.p.p.p.a.a.a.9.a.a.a.a.a.9.a.9.a.a.a.9.a.9.a.a.a.9.a.a.a.9.a.a.a.9.a.a.p.( m.` ",
"` M.( a.0.a.0.a.0.a.0.a.0.a.0.a.0.a.0.a.0.a.0.a.0.a.0.a.0.a.0.a.p.p.p.p.p.p.p.p.p.p.p.p.p.p.p.p.p.p.p.p.p.p.p.p.p.p.p.p.p.p.p.p.9.a.a.a.9.a.9.a.a.a.a.a.9.a.a.a.a.a.9.a.a.a.9.a.a.a.9.a.a.a.9.a.p.~ m.` ",
"` M.( 0.a.0.a.0.a.0.a.0.a.0.a.0.a.0.a.0.a.0.a.0.a.0.a.0.a.0.a.0.p.p.p.p.p.p.p.p.p.p.p.p.p.p.p.p.p.p.p.p.p.p.p.p.p.p.p.p.p.p.p.p.a.a.a.a.a.9.a.9.a.9.a.a.a.9.a.a.a.a.a.9.a.a.a.a.a.a.a.9.a.a.a.a.p.( m.` ",
"` M.( a.0.a.0.a.0.a.0.a.0.a.0.a.0.a.0.a.0.a.0.a.0.a.0.a.0.a.0.a.p.p.p.p.p.p.p.p.p.p.p.p.p.p.p.p.p.p.p.p.p.p.p.p.p.p.p.p.p.p.p.p.9.a.9.a.a.a.a.a.a.a.9.a.a.a.9.a.9.a.a.a.9.a.9.a.9.a.a.a.9.a.9.a.p.~ m.` ",
"` M.( 0.a.0.a.0.a.0.a.0.a.0.a.0.a.0.a.0.a.0.a.0.a.0.a.0.a.0.a.0.p.p.p.p.p.p.p.p.p.p.p.p.p.p.p.p.p.p.p.p.p.p.p.p.p.p.p.p.p.p.p.p.a.a.a.9.a.9.a.a.a.a.a.a.a.a.a.a.a.9.a.9.a.a.a.9.a.9.a.9.a.a.a.9.p.~ m.` ",
"` M.( a.0.a.0.a.0.a.0.a.0.a.0.a.0.a.0.a.0.a.0.a.0.a.0.a.0.a.0.a.p.p.p.p.p.p.p.p.p.p.p.p.p.p.p.p.p.p.p.p.p.p.p.p.p.p.p.p.p.p.p.p.9.a.a.a.a.a.9.a.9.a.9.a.9.a.9.a.a.a.a.a.9.a.a.a.a.a.a.a.9.a.a.a.p.( m.` ",
"` M.( a.a.0.a.0.a.0.a.0.a.0.a.0.a.0.a.0.a.0.a.0.a.0.a.0.a.0.a.0.p.p.p.p.p.p.p.p.p.p.p.p.p.p.p.p.p.p.p.p.p.p.p.p.p.p.p.p.p.p.p.p.a.a.a.a.a.9.a.a.a.9.a.9.a.9.a.9.a.9.a.a.a.a.a.9.a.a.a.a.a.9.a.a.p.( m.` ",
"` M.( a.0.a.0.a.0.a.0.a.0.a.0.a.0.a.0.a.0.a.0.a.0.a.0.a.0.a.0.a.p.p.p.p.p.p.p.p.p.p.p.p.p.p.p.p.p.p.p.p.p.p.p.p.p.p.p.p.p.p.p.p.9.a.9.a.a.a.9.a.a.a.a.a.a.a.a.a.a.a.9.a.9.a.a.a.9.a.9.a.a.a.9.a.p.~ m.` ",
"` M.( a.a.0.a.0.a.0.a.0.a.0.a.0.a.0.a.0.a.0.a.0.a.0.a.0.a.0.a.0.p.p.p.p.p.p.p.p.p.p.p.p.p.p.p.p.p.p.p.p.p.p.p.p.p.p.p.p.p.p.p.p.a.a.a.9.a.a.a.a.a.9.a.a.a.9.a.a.a.a.a.a.a.9.a.9.a.a.a.9.a.a.a.a.p.( M.` ",
"` M.( 0.0.a.0.a.0.a.0.a.0.a.0.a.0.a.0.a.0.a.0.a.0.a.0.a.0.a.0.a.p.p.p.p.p.p.p.p.p.p.p.p.p.p.p.p.p.p.p.p.p.p.p.p.p.p.p.p.p.p.p.p.9.a.a.a.9.a.9.a.a.a.9.a.a.a.9.a.9.a.9.a.a.a.a.a.9.a.a.a.9.a.9.a.p.~ m.` ",
"` M.( 0.a.0.a.0.a.0.a.0.a.0.a.0.a.0.a.0.a.0.a.0.a.0.a.0.a.0.a.0.p.p.p.p.p.p.p.p.p.p.p.p.p.p.p.p.p.p.p.p.p.p.p.p.p.p.p.p.p.p.p.p.a.a.a.a.a.9.a.9.a.a.a.9.a.a.a.a.a.9.a.9.a.a.a.9.a.a.a.a.a.9.a.9.p.~ M.` ",
"` M.( a.0.a.0.a.0.a.0.a.0.a.0.a.0.a.0.a.0.a.0.a.0.a.0.a.0.a.0.a.p.p.p.p.p.p.p.p.p.p.p.p.p.p.p.p.p.p.p.p.p.p.p.p.p.p.p.p.p.p.p.p.9.a.9.a.a.a.a.a.9.a.a.a.9.a.9.a.a.a.a.a.9.a.a.a.9.a.9.a.a.a.a.a.p.( M.` ",
"` M.( a.a.0.a.0.a.0.a.0.a.0.a.0.a.0.a.0.a.0.a.0.a.0.a.0.a.0.a.0.p.p.p.p.p.p.p.p.p.p.p.p.p.p.p.p.p.p.p.p.p.p.p.p.p.p.p.p.p.p.p.p.a.a.a.9.a.9.a.a.a.9.a.9.a.a.a.9.a.9.a.a.a.9.a.9.a.a.a.9.a.9.a.a.p.( M.` ",
"` M.( a.0.a.0.a.0.a.0.a.0.a.0.a.0.a.0.a.0.a.0.a.0.a.0.a.0.a.0.a.p.p.p.p.p.p.p.p.p.p.p.p.p.p.p.p.p.p.p.p.p.p.p.p.p.p.p.p.p.p.p.p.9.a.a.a.a.a.9.a.a.a.a.a.9.a.a.a.a.a.9.a.a.a.a.a.9.a.a.a.a.a.9.a.p.~ m.` ",
"` M.( p.p.p.p.p.p.p.p.p.p.p.p.p.p.p.p.p.p.p.p.p.p.p.p.p.p.p.p.p.p.p.p.p.p.p.p.p.p.p.p.p.p.p.p.p.p.p.p.p.p.p.p.p.p.p.p.p.p.p.p.p.a.a.a.a.a.9.a.a.a.a.a.9.a.a.a.a.a.9.a.a.a.a.a.9.a.a.a.a.a.9.a.a.9.( c.` ",
"` M.( p.p.p.p.p.p.p.p.p.p.p.p.p.p.p.p.p.p.p.p.p.p.p.p.p.p.p.p.p.p.p.p.p.p.p.p.p.p.p.p.p.p.p.p.p.p.p.p.p.p.p.p.p.p.p.p.p.p.p.p.p.9.a.9.a.a.a.9.a.9.a.a.a.9.a.9.a.a.a.9.a.9.a.a.a.9.a.9.a.a.a.9.a.a.~ M.` ",
"` M.( p.p.p.p.p.p.p.p.p.p.p.p.p.p.p.p.p.p.p.p.p.p.p.p.p.p.p.p.p.p.p.p.p.p.p.p.p.p.p.p.p.p.p.p.p.p.p.p.p.p.p.p.p.p.p.p.p.p.p.p.p.a.a.a.9.a.a.a.a.a.9.a.9.a.a.a.9.a.a.a.a.a.9.a.9.a.a.a.9.a.a.a.a.a.~ c.` ",
"` M.( p.p.p.p.p.p.p.p.p.p.p.p.p.p.p.p.p.p.p.p.p.p.p.p.p.p.p.p.p.p.p.p.p.p.p.p.p.p.p.p.p.p.p.p.p.p.p.p.p.p.p.p.p.p.p.p.p.p.p.p.p.9.a.a.a.9.a.9.a.a.a.a.a.9.a.a.a.9.a.9.a.a.a.a.a.9.a.a.a.9.a.9.a.a.( c.` ",
"` M.( a.p.p.p.p.p.p.p.p.p.p.p.p.p.p.p.p.p.p.p.p.p.p.p.p.p.p.p.p.p.p.p.p.p.p.p.p.p.p.p.p.p.p.p.p.p.p.p.p.p.p.p.p.p.p.p.p.p.p.p.p.a.a.a.a.a.9.a.9.a.9.a.a.a.9.a.a.a.9.a.9.a.a.a.9.a.a.a.a.a.9.a.9.9._ d.` ",
"` M.( a.p.p.p.p.p.p.p.p.p.p.p.p.p.p.p.p.p.p.p.p.p.p.p.p.p.p.p.p.p.p.p.p.p.p.p.p.p.p.p.p.p.p.p.p.p.p.p.p.p.p.p.p.p.p.p.p.p.p.p.p.9.a.9.a.a.a.a.a.a.a.9.a.a.a.9.a.a.a.a.a.9.a.a.a.9.a.9.a.a.a.a.a.a.~ d.` ",
"` M.( a.p.p.p.p.p.p.p.p.p.p.p.p.p.p.p.p.p.p.p.p.p.p.p.p.p.p.p.p.p.p.p.p.p.p.p.p.p.p.p.p.p.p.p.p.p.p.p.p.p.p.p.p.p.p.p.p.p.p.p.p.a.a.a.9.a.9.a.a.a.a.a.a.a.a.a.a.a.9.a.a.a.9.a.9.a.a.a.9.a.9.a.a.a.~ a.( ",
"` M._ 9.p.p.p.p.p.p.p.p.p.p.p.p.p.p.p.p.p.p.p.p.p.p.p.p.p.p.p.p.p.p.p.p.p.p.p.p.p.p.p.p.p.p.p.p.p.p.p.p.p.p.p.p.p.p.p.p.p.p.p.p.9.a.a.a.a.a.9.a.9.a.9.a.9.a.9.a.a.a.9.a.a.a.a.a.9.a.a.a.a.a.9.a.a.( a.` ",
"` M.( 9.a.p.a.9.p.p.p.p.p.p.p.p.p.p.p.p.p.p.p.p.p.p.p.p.p.p.p.p.p.p.p.p.p.p.p.p.p.p.p.p.p.p.p.p.p.p.p.p.p.p.p.p.p.p.p.p.p.p.p.p.a.a.a.a.a.9.a.a.a.9.a.9.a.9.a.9.a.a.a.9.a.a.a.a.a.a.a.9.a.a.a.a.a.~ a.( ",
"` M.( a.p.a.p.a.p.p.p.p.p.p.p.p.p.p.p.p.p.p.p.p.p.p.p.p.p.p.p.p.p.p.p.p.p.p.p.p.p.p.p.p.p.p.p.p.p.p.p.p.p.p.p.p.p.p.p.p.p.p.p.p.9.a.9.a.a.a.9.a.a.a.a.a.a.a.a.a.9.a.a.a.9.a.9.a.9.a.a.a.9.a.9.a.a.( a.( ",
"` M.( a.a.p.a.p.p.p.p.p.p.p.p.p.p.p.p.p.p.p.p.p.p.p.p.p.p.p.p.p.p.p.p.p.p.p.p.p.p.p.p.p.p.p.p.p.p.p.p.p.p.p.p.p.p.p.p.p.p.p.p.p.a.a.a.9.a.a.a.a.a.9.a.a.a.9.a.a.a.9.a.9.a.a.a.9.a.9.a.9.a.a.a.9.a.~ a.( ",
"` M.( a.p.a.9.a.p.p.p.p.p.p.p.p.p.p.p.p.p.p.p.p.p.p.p.p.p.p.p.p.p.p.p.p.p.p.p.p.p.p.p.p.p.p.p.p.p.p.p.p.p.p.p.p.p.p.p.p.p.p.p.p.9.a.a.a.9.a.9.a.a.a.9.a.a.a.9.a.a.a.a.a.9.a.a.a.a.a.a.a.9.a.a.a.9._ a.` ",
"` M._ 9.a.p.a.p.p.p.p.p.p.p.p.p.p.p.p.p.p.p.p.p.p.p.p.p.p.p.p.p.p.p.p.p.p.p.p.p.p.p.p.p.p.p.p.p.p.p.p.p.p.p.p.p.p.p.p.p.p.p.p.p.a.a.a.a.a.9.a.9.a.a.a.9.a.a.a.a.a.9.a.a.a.9.a.a.a.9.a.a.a.9.a.a.a.~ a.( ",
"` M.( a.9.a.9.a.p.p.p.p.p.p.p.p.p.p.p.p.p.p.p.p.p.p.p.p.p.p.p.p.p.p.p.p.p.p.p.p.p.p.p.p.p.p.p.p.p.p.p.p.p.p.p.p.p.p.p.p.p.p.p.p.9.a.9.a.a.a.a.a.9.a.a.a.9.a.9.a.a.a.9.a.a.a.9.a.a.a.9.a.a.a.9.a.a.( a.( ",
"` M.( p.a.9.a.p.p.p.p.p.p.p.p.p.p.p.p.p.p.p.p.p.p.p.p.p.p.p.p.p.p.p.p.p.p.p.p.p.p.p.p.p.p.p.p.p.p.p.p.p.p.p.p.p.p.p.p.p.p.p.p.p.a.a.a.9.a.9.a.a.a.9.a.9.a.a.a.9.a.a.a.a.a.a.a.a.a.a.a.a.a.a.a.a.a.( a.` ",
"` M.( a.p.a.p.a.p.p.p.p.p.p.p.p.p.p.p.p.p.p.p.p.p.p.p.p.p.p.p.p.p.p.p.p.p.p.p.p.p.p.p.p.p.p.p.p.p.p.p.p.p.p.p.p.p.p.p.p.p.p.p.p.9.a.a.a.a.a.9.a.a.a.a.a.9.a.a.a.9.a.9.a.9.a.9.a.9.a.9.a.9.a.9.a.a.~ a.( ",
"` M.( a.a.p.a.p.a.p.a.9.a.p.a.9.p.p.p.p.p.p.p.p.p.p.p.p.p.p.p.p.p.p.p.p.p.p.p.p.p.p.p.p.p.p.p.p.p.p.p.p.p.p.p.p.p.p.p.p.p.p.p.p.a.a.a.a.a.9.a.a.a.a.a.9.a.a.a.a.a.9.a.9.a.9.a.9.a.9.a.9.a.9.a.9.a.( a.( ",
"` M.( a.p.a.9.a.9.a.p.a.p.a.p.a.p.p.p.p.p.p.p.p.p.p.p.p.p.p.p.p.p.p.p.p.p.p.p.p.p.p.p.p.p.p.p.p.p.p.p.p.p.p.p.p.p.p.p.p.p.p.p.p.9.a.9.a.a.a.9.a.9.a.a.a.9.a.9.a.a.a.a.a.a.a.a.a.a.a.a.a.a.a.a.a.a.~ a.( ",
"` M.( a.a.9.a.9.a.p.a.p.a.p.a.p.p.p.p.p.p.p.p.p.p.p.p.p.p.p.p.p.p.p.p.p.p.p.p.p.p.p.p.p.p.p.p.p.p.p.p.p.p.p.p.p.p.p.p.p.p.p.p.p.a.a.a.9.a.a.a.a.a.9.a.9.a.a.a.9.a.9.a.a.a.9.a.a.a.9.a.a.a.9.a.a.a.~ d.( ",
"` M._ 9.p.a.p.a.p.a.9.a.p.a.9.a.p.p.p.p.p.p.p.p.p.p.p.p.p.p.p.p.p.p.p.p.p.p.p.p.p.p.p.p.p.p.p.p.p.p.p.p.p.p.p.p.p.p.p.p.p.p.p.p.9.a.a.a.9.a.9.a.a.a.a.a.9.a.a.a.a.a.9.a.a.a.9.a.a.a.9.a.a.a.9.a.a.( a.( ",
"` M.( 9.a.p.a.p.a.9.a.p.a.p.a.p.p.p.p.p.p.p.p.p.p.p.p.p.p.p.p.p.p.p.p.p.p.p.p.p.p.p.p.p.p.p.p.p.p.p.p.p.p.p.p.p.p.p.p.p.p.p.p.p.a.a.a.a.a.9.a.9.a.9.a.a.a.9.a.a.a.a.a.9.a.a.a.a.a.a.a.9.a.a.a.a.a.( a.( ",
"` M.( a.p.a.p.a.p.a.p.a.9.a.9.a.p.p.p.p.p.p.p.p.p.p.p.p.p.p.p.p.p.p.p.p.p.p.p.p.p.p.p.p.p.p.p.p.p.p.p.p.p.p.p.p.p.p.p.p.p.p.p.p.9.a.9.a.a.a.a.a.a.a.9.a.a.a.9.a.9.a.a.a.9.a.9.a.9.a.a.a.9.a.9.a.a.~ a.( ",
"` M.( a.a.p.a.9.a.p.a.9.a.9.a.p.p.p.p.p.p.p.p.p.p.p.p.p.p.p.p.p.p.p.p.p.p.p.p.p.p.p.p.p.p.p.p.p.p.p.p.p.p.p.p.p.p.p.p.p.p.p.p.p.a.a.a.9.a.9.a.a.a.a.a.a.a.a.a.a.a.9.a.9.a.a.a.9.a.9.a.9.a.a.a.9.a.( a.( ",
"` M.( a.9.a.p.a.9.a.p.a.p.a.p.a.p.p.p.p.p.p.p.p.p.p.p.p.p.p.p.p.p.p.p.p.p.p.p.p.p.p.p.p.p.p.p.p.p.p.p.p.p.p.p.p.p.p.p.p.p.p.p.p.9.a.a.a.a.a.9.a.9.a.9.a.9.a.9.a.a.a.a.a.9.a.a.a.a.a.a.a.9.a.a.a.a.~ a.` ",
"` M.( p.a.9.a.p.a.p.a.p.a.p.a.p.p.p.p.p.p.p.p.p.p.p.p.p.p.p.p.p.p.p.p.p.p.p.p.p.p.p.p.p.p.p.p.p.p.p.p.p.p.p.p.p.p.p.p.p.p.p.p.p.a.a.a.a.a.9.a.a.a.9.a.9.a.9.a.9.a.9.a.a.a.a.a.9.a.a.a.a.a.9.a.a.9.( a.( ",
"` M.( a.p.a.p.a.p.a.p.a.9.a.9.a.p.p.p.p.p.p.p.p.p.p.p.p.p.p.p.p.p.p.p.p.p.p.p.p.p.p.p.p.p.p.p.p.p.p.p.p.p.p.p.p.p.p.p.p.p.p.p.p.9.a.9.a.a.a.9.a.a.a.a.a.a.a.a.a.a.a.9.a.9.a.a.a.9.a.9.a.a.a.9.a.a.( a.( ",
"` M.( 9.a.p.a.9.a.p.a.9.a.9.a.p.p.p.p.p.p.p.p.p.p.p.p.p.p.p.p.p.p.p.p.p.p.p.p.p.p.p.p.p.p.p.p.p.p.p.p.p.p.p.p.p.p.p.p.p.p.p.p.p.a.a.a.9.a.a.a.a.a.9.a.a.a.9.a.a.a.a.a.a.a.9.a.9.a.a.a.9.a.a.a.a.a.~ a.` ",
"` M._ a.9.a.p.a.9.a.p.a.p.a.p.a.p.p.p.p.p.p.p.p.p.p.p.p.p.p.p.p.p.p.p.p.p.p.p.p.p.p.p.p.p.p.p.p.p.p.p.p.p.p.p.p.p.p.p.p.p.p.p.p.9.a.a.a.9.a.9.a.a.a.9.a.a.a.9.a.9.a.9.a.a.a.a.a.9.a.a.a.9.a.9.a.9.( d.( ",
"` M.( a.a.p.a.p.a.p.a.9.a.9.a.p.p.p.p.p.p.p.p.p.p.p.p.p.p.p.p.p.p.p.p.p.p.p.p.p.p.p.p.p.p.p.p.p.p.p.p.p.p.p.p.p.p.p.p.p.p.p.p.p.a.a.a.a.a.9.a.9.a.a.a.9.a.a.a.a.a.9.a.9.a.a.a.9.a.a.a.a.a.9.a.9.a.( d.( ",
"` M.( a.p.a.9.a.9.a.p.a.p.a.p.a.p.p.p.p.p.p.p.p.p.p.p.p.p.p.p.p.p.p.p.p.p.p.p.p.p.p.p.p.p.p.p.p.p.p.p.p.p.p.p.p.p.p.p.p.p.p.p.p.9.a.9.a.a.a.a.a.9.a.a.a.9.a.9.a.a.a.a.a.9.a.a.a.9.a.9.a.a.a.a.a.a.~ d.( ",
"` M.( a.a.9.a.9.a.p.a.p.a.p.a.9.p.p.p.p.p.p.p.p.p.p.p.p.p.p.p.p.p.p.p.p.p.p.p.p.p.p.p.p.p.p.p.p.p.p.p.p.p.p.p.p.p.p.p.p.p.p.p.p.a.a.a.9.a.9.a.a.a.9.a.9.a.a.a.9.a.9.a.a.a.9.a.9.a.a.a.9.a.9.a.a.a.~ d.( ",
"` M.( p.p.a.p.a.p.a.p.a.9.a.p.a.p.p.p.p.p.p.p.p.p.p.p.p.p.p.p.p.p.p.p.p.p.p.p.p.p.p.p.p.p.p.p.p.p.p.p.p.p.p.p.p.p.p.p.p.p.p.p.p.9.a.a.a.a.a.9.a.a.a.a.a.9.a.a.a.a.a.9.a.a.a.a.a.9.a.a.a.a.a.9.a.a.( d.( ",
"` M.( a.u.a.a.a.a.9.a.a.a.9.a.9.a.a.a.9.a.9.a.a.a.9.a.9.a.a.a.9.a.9.a.a.a.9.a.9.a.a.a.9.a.9.a.a.a.9.a.9.a.a.a.9.a.9.a.a.a.9.a.9.a.a.a.9.a.a.a.9.a.9.a.a.a.9.a.9.a.a.a.9.a.a.9.a.a.a.a.9.a.a.a.9.a.~ c.( ",
"` M.! ` ( ( ( ( ( ` _ ( ( _ ( ` _ ( ( _ ( ` _ ( ( _ ( ` _ ( ( _ ( ` _ ( ( _ ( ` _ ( ( _ ( ` _ ( ( _ ( ` _ ( ( _ ( ` _ ( ( _ ( ` ( ( ( ` _ ( ( _ ( ` _ ( ( _ ( ` _ ( ( _ ( ( _ ( ( ( ( ( _ ( ( _ ( ~ c.` ",
"` M.M.M.M.M.M.M.M.M.M.M.M.M.M.M.M.M.M.M.M.M.M.M.M.M.M.M.M.M.M.M.M.M.M.M.M.M.M.M.M.M.M.M.M.M.M.M.M.M.M.M.M.M.M.M.M.M.M.M.M.M.M.M.M.M.M.M.M.M.M.M.M.M.M.M.M.M.M.M.M.M.M.M.M.M.c.M.M.c.M.M.M.c.c.M.c.c.d.( ",
"3 ` ` ` ` ` ` ` ` ` ` ` ` ` ` ` ` ` ` ` ` ` ` ` ` ` ` ` ` ` ` ` ` ` ` ` ` ` ` ` ` ` ` ` ` ` ` ` ` ` ` ` ` ` ` ` ` ` ` ` ` ` ` ` ` ` ` ` ` ` ` ` ` ` ` ` ` ` ` ` ` ` ` ` ` ` ` ` ` ` ` ( ` ( ` ` ( ` ` 1 "
};
